<svg id="Livello_1" data-name="Livello 1" xmlns="http://www.w3.org/2000/svg" width="71.92" height="46.19" viewBox="0 0 71.92 46.19">
  <defs>
    <style>
      .cls-1 {
        fill: #fff;
      }
    </style>
  </defs>
  <polygon class="cls-1" points="0 43.76 0 13.16 9.26 13.16 19.93 2.49 69.24 2.49 69.24 11.57 53.51 11.57 53.51 43.76 0 43.76"/>
  <path d="M42.36,4.68H66.71v5.68H42.36Zm0,10.5h8.38v6H42.36ZM30.88,25.53H50.74v5.61H30.88ZM50.74,41.44l-19.86-.07V35.63H50.74ZM22.43,31.28l3.5-3.63V41.37H0v4.82H55.69V15.11H71.92V0H19.13L8.38,10.82H0V15.9H10.62L21.44,4.68H37.28V21.11H31V10.29H26V20.85l-5.88,5.54H11.88v4.89Z"/>
</svg>
