<svg id="Livello_1" data-name="Livello 1" xmlns="http://www.w3.org/2000/svg" width="66.04" height="85.66" viewBox="0 0 66.04 85.66">
  <defs>
    <style>
      .cls-1 {
        fill: #fff;
      }
    </style>
  </defs>
  <polygon class="cls-1" points="42.15 83.9 64.35 61.7 57.63 54.99 57.63 39.51 21.86 3.75 15.28 10.34 26.68 21.74 3.34 45.08 42.15 83.9"/>
  <path d="M35.65,29,18,11.29l4.12-4.11L39.77,24.84ZM27.8,36.8l-6.07-6.08,4.35-4.36,6.08,6.08Zm1.1,15.55L14.5,37.94l4.06-4.06L33,48.28ZM11.25,41.2,25.66,55.61l-4.17,4.16L7,45.41Zm31.34,25,3.54-3.54-6-6-.24-8.28,7.66-7.66L44,37.18,36.13,45l-4.59-4.59L43.45,28.52,54.94,40l-.29,16,7.71,7.71L66,60,60,53.93l0-15.65L21.73,0l-11,11L22.54,22.73,0,45.27,40.39,85.66l3.49-3.49L25.08,63.36l10-10-.1,5.16Z"/>
</svg>
